<svg width="48" height="13" viewBox="0 0 48 13" fill="none" xmlns="http://www.w3.org/2000/svg">
<mask id="mask0_13795_33219" style="mask-type:alpha" maskUnits="userSpaceOnUse" x="0" y="0" width="48" height="13">
<g clip-path="url(#clip0_13795_33219)">
<path d="M0.712891 9.19331L2.3876 7.89746C3.27736 9.07041 4.22269 9.61106 5.27492 9.61106C6.32153 9.61106 7.24013 9.0768 8.08978 7.91306L9.78842 9.17768C8.56245 10.8558 7.03896 11.7424 5.27492 11.7424C3.51651 11.7424 1.97825 10.8615 0.712891 9.19331Z" fill="url(#paint0_linear_13795_33219)"/>
<path d="M5.27088 3.56126L2.29 6.15585L0.912109 4.5417L5.27721 0.742188L9.60782 4.54452L8.22361 6.153L5.27088 3.56126Z" fill="url(#paint1_linear_13795_33219)"/>
<path fill-rule="evenodd" clip-rule="evenodd" d="M21.8732 3.34361C21.8732 3.90487 22.2783 4.31408 22.834 4.31408V4.31481C23.3714 4.31481 23.7863 3.90487 23.7863 3.34361C23.7863 2.80082 23.3714 2.3916 22.834 2.3916C22.2973 2.3916 21.8732 2.80082 21.8732 3.34361ZM21.2621 2.77234V10.036H19.6036V2.77234H21.2621ZM16.2114 10.1409C15.1937 10.1408 14.3456 9.80761 13.6578 9.14129C12.9699 8.46565 12.6309 7.59961 12.6309 6.54245C12.6309 5.47677 12.979 4.60079 13.6669 3.91519C14.3647 3.22038 15.2129 2.87794 16.2216 2.87794C17.4658 2.87794 18.568 3.42001 19.2094 4.26759L18.0869 5.45759C17.5495 4.87644 16.965 4.58159 16.3341 4.58159C15.7967 4.58159 15.3536 4.76205 14.9857 5.13363C14.6277 5.50519 14.4491 5.97195 14.4491 6.53321C14.4491 7.07601 14.6277 7.53281 14.9857 7.90439C15.3536 8.26601 15.7967 8.44647 16.3242 8.44647C17.0121 8.44647 17.6156 8.14169 18.115 7.54205L19.284 8.67522C18.9633 9.10363 18.53 9.45601 17.9926 9.73166C17.4554 10.008 16.8618 10.1408 16.2114 10.1409ZM23.673 4.7807V10.0359H22.0046V4.7807H23.673ZM24.869 9.37881C25.3867 9.89317 26.0464 10.1504 26.8665 10.1504C27.9694 10.1504 28.9021 9.60756 29.3551 8.73159L28.0257 7.93232C27.8372 8.34155 27.3941 8.60796 26.9137 8.60796C26.2441 8.60796 25.7447 8.0936 25.7447 7.39878C25.7388 7.08342 25.8575 6.77869 26.0746 6.55192C26.301 6.32314 26.5838 6.20878 26.9327 6.20878C27.4131 6.20878 27.7809 6.43753 28.0447 6.88512L29.3733 6.18033C28.9309 5.18073 27.9786 4.64789 26.8947 4.64789C26.0654 4.64789 25.3965 4.90439 24.8781 5.41875C24.3598 5.93311 24.1051 6.58957 24.1051 7.39878C24.1051 8.20799 24.3598 8.86515 24.869 9.37881ZM35.1398 10.036H33.16L31.623 7.95082L31.3784 8.1796V10.036H29.7205V2.77234H31.3789V6.30399L32.9433 4.78079H34.9698L32.7367 6.89439L35.1398 10.036ZM35.2511 3.00051V7.30371C35.2511 9.37896 36.6838 10.1598 38.1258 10.1598C39.5768 10.1598 41.0005 9.37896 41.0005 7.30371V3.00051H39.2188V7.2753C39.2188 8.04615 38.7664 8.44612 38.1258 8.44612C37.4752 8.44612 37.0229 8.06533 37.0229 7.2753V3.00051H35.2511ZM44.938 4.64789C45.683 4.64789 46.2864 4.91432 46.7667 5.44716C47.247 5.97076 47.4826 6.62792 47.4826 7.39878C47.4826 8.17033 47.238 8.8268 46.7577 9.36957C46.2766 9.90241 45.6737 10.1695 44.9479 10.1695C44.3726 10.1695 43.8731 9.97915 43.4678 9.59832V12.1972H41.7995V4.78076H43.4399V5.2667C43.8449 4.85677 44.3444 4.64789 44.938 4.64789ZM44.6178 6.20898C45.2968 6.20898 45.7861 6.73258 45.7861 7.41816H45.787C45.791 7.73628 45.6725 8.04354 45.4563 8.27496C45.2396 8.51298 44.9569 8.62734 44.6178 8.62734C44.2782 8.62734 43.9955 8.51298 43.7697 8.27496C43.5524 8.03697 43.4399 7.75136 43.4399 7.41816C43.4399 6.73258 43.9391 6.20898 44.6178 6.20898Z" fill="black"/>
</g>
</mask>
<g mask="url(#mask0_13795_33219)">
<rect x="-8.29297" y="-29.4756" width="78.7388" height="97.3339" fill="#18478B"/>
</g>
<defs>
<linearGradient id="paint0_linear_13795_33219" x1="0.712891" y1="12.4349" x2="9.78842" y2="12.4349" gradientUnits="userSpaceOnUse">
<stop stop-color="#7612FA"/>
<stop offset="1" stop-color="#40DDFF"/>
</linearGradient>
<linearGradient id="paint1_linear_13795_33219" x1="0.912109" y1="7.13084" x2="9.60782" y2="7.13084" gradientUnits="userSpaceOnUse">
<stop stop-color="#FA12E3"/>
<stop offset="1" stop-color="#FFD700"/>
</linearGradient>
<clipPath id="clip0_13795_33219">
<rect width="46.7784" height="11.622" fill="white" transform="translate(0.712891 0.742188)"/>
</clipPath>
</defs>
</svg>
