<svg width="46" height="16" viewBox="0 0 46 16" fill="none" xmlns="http://www.w3.org/2000/svg">
<mask id="mask0_13795_30077" style="mask-type:alpha" maskUnits="userSpaceOnUse" x="0" y="0" width="46" height="16">
<g clip-path="url(#clip0_13795_30077)">
<path d="M23.4458 2.14941H25.1239V10.9281C25.1239 13.2429 24.1255 14.8589 21.8101 14.8589C20.9391 14.8589 20.2593 14.7061 19.792 14.5313V12.8499C20.3018 13.0683 20.9179 13.1774 21.5339 13.1774C22.9571 13.1774 23.4458 12.3039 23.4458 11.0373V2.14941Z" fill="#253858"/>
<path d="M28.204 1.47168C28.8625 1.47168 29.3298 1.8866 29.3298 2.62907C29.3298 3.34972 28.8625 3.78647 28.204 3.78647C27.5454 3.78647 27.0781 3.37156 27.0781 2.62907C27.0781 1.90843 27.5454 1.47168 28.204 1.47168ZM27.3755 5.16223H28.99V14.7708H27.3755V5.16223Z" fill="#253858"/>
<path d="M32.9841 14.7713H31.4121V5.16272H32.9841V6.84425C33.5364 5.70868 34.4711 4.90069 36.2979 5.00988V6.62586C34.2374 6.40748 32.9841 7.04074 32.9841 9.09349V14.7713Z" fill="#253858"/>
<path d="M43.8384 13.0467C43.2437 14.3133 42.1178 14.9684 40.6733 14.9684C38.1879 14.9684 36.9346 12.8065 36.9346 9.9676C36.9346 7.2597 38.2516 4.9668 40.8645 4.9668C42.224 4.9668 43.2861 5.60006 43.8384 6.84482V5.16329H45.4529V14.7719H43.8384V13.0467ZM41.0981 13.4398C42.5427 13.4398 43.8172 12.5008 43.8172 10.3606V9.59637C43.8172 7.45625 42.6488 6.51724 41.2681 6.51724C39.4624 6.51724 38.5278 7.74018 38.5278 9.9676C38.549 12.2824 39.4412 13.4398 41.0981 13.4398Z" fill="#253858"/>
<path d="M15.013 0.183594H7.66309C7.66309 2.06163 9.15005 3.59027 10.9769 3.59027H12.3364V4.92236C12.3364 6.80038 13.8234 8.32906 15.6503 8.32906V0.838724C15.6503 0.467486 15.3742 0.183594 15.013 0.183594Z" fill="#2684FF"/>
<path d="M11.3802 3.93945H4.03027C4.03027 5.81749 5.51726 7.34611 7.34414 7.34611H8.70364V8.70006C8.70364 10.5781 10.1907 12.1068 12.0175 12.1068V4.59456C12.0175 4.24518 11.7413 3.93945 11.3802 3.93945Z" fill="url(#paint0_linear_13795_30077)"/>
<path d="M7.74743 7.71777H0.397461C0.397461 9.59579 1.88444 11.1244 3.71131 11.1244H5.07084V12.4565C5.07084 14.3346 6.55781 15.8632 8.38467 15.8632V8.37286C8.38467 8.00163 8.08732 7.71777 7.74743 7.71777Z" fill="url(#paint1_linear_13795_30077)"/>
</g>
</mask>
<g mask="url(#mask0_13795_30077)">
<rect x="-13.0635" y="-18.585" width="66.5726" height="53.8455" fill="#18478B"/>
</g>
<defs>
<linearGradient id="paint0_linear_13795_30077" x1="11.8611" y1="3.9583" x2="8.6472" y2="7.18235" gradientUnits="userSpaceOnUse">
<stop offset="0.176" stop-color="#0052CC"/>
<stop offset="1" stop-color="#2684FF"/>
</linearGradient>
<linearGradient id="paint1_linear_13795_30077" x1="8.43261" y1="7.74286" x2="4.72252" y2="11.2543" gradientUnits="userSpaceOnUse">
<stop offset="0.176" stop-color="#0052CC"/>
<stop offset="1" stop-color="#2684FF"/>
</linearGradient>
<clipPath id="clip0_13795_30077">
<rect width="45.0344" height="15.6641" fill="white" transform="translate(0.397461 0.260742)"/>
</clipPath>
</defs>
</svg>
