<svg width="62" height="19" viewBox="0 0 62 19" fill="none" xmlns="http://www.w3.org/2000/svg">
<mask id="mask0_13795_30093" style="mask-type:alpha" maskUnits="userSpaceOnUse" x="0" y="0" width="62" height="19">
<g clip-path="url(#clip0_13795_30093)">
<path fill-rule="evenodd" clip-rule="evenodd" d="M11.3608 2.69727H1.97511C1.16768 2.69727 0.512831 3.38393 0.511731 4.23173V14.0722C0.510169 14.4808 0.66365 14.8732 0.938256 15.1627C1.21286 15.4522 1.58597 15.6149 1.97511 15.6149H11.3608C11.7496 15.6144 12.1222 15.4514 12.3964 15.162C12.6705 14.8725 12.8238 14.4804 12.8222 14.0722V4.23173C12.8211 3.38474 12.1674 2.69841 11.3608 2.69727ZM5.82089 12.0014C5.82037 12.138 5.76807 12.2687 5.67555 12.3647C5.58302 12.4606 5.4579 12.514 5.32784 12.5129H3.27676C3.00849 12.5117 2.7916 12.2831 2.7916 12.0014V5.59225C2.7916 5.31057 3.00849 5.0819 3.27676 5.08076H5.32784C5.59643 5.0819 5.81389 5.31023 5.81497 5.59225L5.82089 12.0014ZM10.5542 9.05878C10.5542 9.19552 10.502 9.32657 10.4094 9.42267C10.3168 9.51877 10.1913 9.57193 10.0611 9.5703H8.01003C7.74144 9.56913 7.52398 9.34079 7.5229 9.05878V5.59225C7.52398 5.31023 7.74144 5.0819 8.01003 5.08076H10.0611C10.3294 5.0819 10.5463 5.31057 10.5463 5.59225L10.5542 9.05878Z" fill="url(#paint0_linear_13795_30093)"/>
<path d="M26.0202 3.64355V6.14095H23.202V15.6149H20.4843V6.14095H17.666V3.64355H26.0202Z" fill="#293856"/>
<path d="M29.4794 15.6146H26.9668V6.29602H29.4794V8.08106C29.9566 6.82408 30.7199 6.07652 32.0787 6.16763V8.92802C30.3037 8.78306 29.4794 9.23864 29.4794 10.7317V15.6146Z" fill="#293856"/>
<path d="M45.8052 15.6874C44.1585 15.6874 43.123 14.8591 43.123 12.9001V2.69727H45.6534V12.5357C45.6534 13.101 46.0084 13.3019 46.4423 13.3019C46.5674 13.3045 46.6926 13.2983 46.817 13.2832V15.5797C46.4861 15.6644 46.1456 15.7006 45.8052 15.6874Z" fill="#293856"/>
<path d="M51.0826 15.6874C49.4358 15.6874 48.3984 14.8591 48.3984 12.9001V2.69727H50.9288V12.5357C50.9288 13.101 51.2857 13.3019 51.7275 13.3019C51.852 13.3046 51.9765 13.2983 52.1002 13.2832V15.5797C51.7675 15.6652 51.4249 15.7014 51.0826 15.6874Z" fill="#293856"/>
<path d="M53.3135 10.9513C53.3135 8.07285 54.8912 6.10352 57.6089 6.10352C60.3266 6.10352 61.8708 8.06664 61.8708 10.9513C61.8708 13.8359 60.3089 15.8342 57.6089 15.8342C54.909 15.8342 53.3135 13.8111 53.3135 10.9513ZM55.7767 10.9513C55.7767 12.3532 56.3369 13.4652 57.6089 13.4652C58.881 13.4652 59.4095 12.3532 59.4095 10.9513C59.4095 9.54934 58.8672 8.4663 57.6089 8.4663C56.3507 8.4663 55.7767 9.54726 55.7767 10.9513Z" fill="#293856"/>
<path d="M35.471 11.7943C36.1745 11.8755 36.8814 11.919 37.5891 11.9248C39.514 11.9248 41.1391 11.3822 41.1391 9.42532C41.1391 7.52639 39.4686 6.09961 37.4589 6.09961C34.7531 6.09961 33.0195 8.16006 33.0195 11.0385C33.0195 14.0266 34.5145 15.8013 37.8928 15.8013C38.8951 15.8099 39.8901 15.6231 40.8275 15.2505V13.0182C39.9597 13.3102 38.9834 13.6001 37.9816 13.6001C36.6365 13.6001 35.6997 13.1362 35.471 11.7943ZM37.4077 8.13314C38.1196 8.13314 38.6916 8.64049 38.6916 9.33421C38.6916 10.2267 37.7942 10.5063 36.7608 10.5063C36.321 10.5042 35.8819 10.4675 35.4473 10.3965C35.4801 9.96139 35.599 9.53822 35.7964 9.15405C36.1188 8.53407 36.735 8.14526 37.4077 8.13728V8.13314Z" fill="#293856"/>
</g>
</mask>
<g mask="url(#mask0_13795_30093)">
<rect x="-28.8311" y="-26.0723" width="109.22" height="73.3262" fill="#18478B"/>
</g>
<defs>
<linearGradient id="paint0_linear_13795_30093" x1="1922.79" y1="829.429" x2="1922.79" y2="2.69727" gradientUnits="userSpaceOnUse">
<stop stop-color="#0052CC"/>
<stop offset="1" stop-color="#2684FF"/>
</linearGradient>
<clipPath id="clip0_13795_30093">
<rect width="61.5325" height="18.4597" fill="white" transform="translate(0.397461 0.0791016)"/>
</clipPath>
</defs>
</svg>
